<?xml version="1.0" encoding="UTF-8" standalone="no"?>
<!-- Created with Inkscape (http://www.inkscape.org/) -->

<svg
   xmlns:dc="http://purl.org/dc/elements/1.1/"
   xmlns:cc="http://creativecommons.org/ns#"
   xmlns:rdf="http://www.w3.org/1999/02/22-rdf-syntax-ns#"
   xmlns:svg="http://www.w3.org/2000/svg"
   xmlns="http://www.w3.org/2000/svg"
   xmlns:sodipodi="http://sodipodi.sourceforge.net/DTD/sodipodi-0.dtd"
   xmlns:inkscape="http://www.inkscape.org/namespaces/inkscape"
   width="744.09448819"
   height="1052.3622047"
   id="svg5196"
   version="1.1"
   inkscape:version="0.48.4 r9939"
   sodipodi:docname="logo.svg">
  <defs
     id="defs5198">
    <inkscape:path-effect
       fuse_tolerance="0"
       vertical_pattern="false"
       prop_units="false"
       tang_offset="0"
       normal_offset="0"
       spacing="0"
       scale_y_rel="false"
       prop_scale="0.29"
       copytype="single_stretched"
       pattern="m 1018.8079,-182.03154 c 0,8.92627 -469.88596,16.16245 -478.81226,16.16245 -8.9263,0 -487.903695,-7.23618 -487.903695,-16.16245 0,-8.92627 478.977395,-16.16244 487.903695,-16.16244 8.9263,0 478.81226,7.23617 478.81226,16.16244 z"
       is_visible="true"
       id="path-effect3979"
       effect="skeletal" />
    <inkscape:path-effect
       effect="skeletal"
       id="path-effect3971"
       is_visible="true"
       pattern="m 964.69062,16.157365 c 0,8.92627 -469.88604,16.162441 -478.81231,16.162441 -8.92627,0 -487.9036913,-7.236171 -487.9036913,-16.162441 0,-8.9262703 478.9774213,-16.16244127 487.9036913,-16.16244127 8.92627,0 478.81231,7.23617097 478.81231,16.16244127 z"
       copytype="single_stretched"
       prop_scale="0.18"
       scale_y_rel="false"
       spacing="0"
       normal_offset="0"
       tang_offset="0"
       prop_units="false"
       vertical_pattern="false"
       fuse_tolerance="0" />
    <inkscape:path-effect
       effect="skeletal"
       id="path-effect3949"
       is_visible="true"
       pattern="m 979.33783,48.987322 c 0,8.92627 -469.88604,16.162441 -478.81231,16.162441 -8.92627,0 -487.903689,-7.236171 -487.903689,-16.162441 0,-8.92627 478.977419,-16.162441 487.903689,-16.162441 8.92627,0 478.81231,7.236171 478.81231,16.162441 z"
       copytype="single_stretched"
       prop_scale="0.36"
       scale_y_rel="false"
       spacing="0"
       normal_offset="0"
       tang_offset="0"
       prop_units="false"
       vertical_pattern="false"
       fuse_tolerance="0" />
    <inkscape:path-effect
       effect="skeletal"
       id="path-effect5350"
       is_visible="true"
       pattern="m 640.46753,107.5254 c 0,38.49454 -514.51117,69.70053 -553.563592,69.70053 -39.052429,0 -70.710679,-31.20599 -70.710679,-69.70053 0,-38.494529 31.65825,-69.700519 70.710679,-69.700519 39.052422,0 553.563592,31.20599 553.563592,69.700519 z"
       copytype="single_stretched"
       prop_scale="0.31"
       scale_y_rel="false"
       spacing="0"
       normal_offset="0"
       tang_offset="0"
       prop_units="false"
       vertical_pattern="false"
       fuse_tolerance="0" />
    <inkscape:path-effect
       effect="skeletal"
       id="path-effect5306"
       is_visible="true"
       pattern="m 1094.9345,-123.95648 c 0,8.92627 -469.88602,16.16245 -478.81232,16.16245 -8.9263,0 -487.9037,-7.23618 -487.9037,-16.16245 0,-8.92627 478.9774,-16.16244 487.9037,-16.16244 8.9263,0 478.81232,7.23617 478.81232,16.16244 z"
       copytype="single_stretched"
       prop_scale="0.27"
       scale_y_rel="false"
       spacing="0"
       normal_offset="0"
       tang_offset="0"
       prop_units="false"
       vertical_pattern="false"
       fuse_tolerance="0" />
    <inkscape:path-effect
       effect="skeletal"
       id="path-effect5294"
       is_visible="true"
       pattern="m 1094.9345,-123.95648 c 0,8.92627 -469.88602,16.16245 -478.81232,16.16245 -8.9263,0 -487.9037,-7.23618 -487.9037,-16.16245 0,-8.92627 478.9774,-16.16244 487.9037,-16.16244 8.9263,0 478.81232,7.23617 478.81232,16.16244 z"
       copytype="single_stretched"
       prop_scale="0.32"
       scale_y_rel="false"
       spacing="0"
       normal_offset="0"
       tang_offset="0"
       prop_units="false"
       vertical_pattern="false"
       fuse_tolerance="0" />
    <inkscape:path-effect
       effect="skeletal"
       id="path-effect5282"
       is_visible="true"
       pattern="m 1094.9345,-123.95648 c 0,8.92627 -469.88602,16.16245 -478.81232,16.16245 -8.9263,0 -487.9037,-7.23618 -487.9037,-16.16245 0,-8.92627 478.9774,-16.16244 487.9037,-16.16244 8.9263,0 478.81232,7.23617 478.81232,16.16244 z"
       copytype="single_stretched"
       prop_scale="0.34"
       scale_y_rel="false"
       spacing="0"
       normal_offset="0"
       tang_offset="0"
       prop_units="false"
       vertical_pattern="false"
       fuse_tolerance="0" />
    <inkscape:path-effect
       effect="skeletal"
       id="path-effect5270"
       is_visible="true"
       pattern="m 1094.9345,-123.95648 c 0,8.92627 -469.88602,16.16245 -478.81232,16.16245 -8.9263,0 -487.9037,-7.23618 -487.9037,-16.16245 0,-8.92627 478.9774,-16.16244 487.9037,-16.16244 8.9263,0 478.81232,7.23617 478.81232,16.16244 z"
       copytype="single_stretched"
       prop_scale="0.3"
       scale_y_rel="false"
       spacing="0"
       normal_offset="0"
       tang_offset="0"
       prop_units="false"
       vertical_pattern="false"
       fuse_tolerance="0" />
    <inkscape:path-effect
       effect="skeletal"
       id="path-effect5257"
       is_visible="true"
       pattern="m 1765.2365,18.682746 c 0,8.92627 -469.886,16.162441 -478.8123,16.162441 -8.9263,0 -487.90369,-7.236171 -487.90369,-16.162441 0,-8.9262699 478.97739,-16.1624409 487.90369,-16.1624409 8.9263,0 478.8123,7.236171 478.8123,16.1624409 z"
       copytype="single_stretched"
       prop_scale="0.29"
       scale_y_rel="false"
       spacing="0"
       normal_offset="0"
       tang_offset="0"
       prop_units="false"
       vertical_pattern="false"
       fuse_tolerance="0" />
    <inkscape:path-effect
       effect="skeletal"
       id="path-effect5245"
       is_visible="true"
       pattern="m 1765.2365,18.682746 c 0,8.92627 -469.886,16.162441 -478.8123,16.162441 -8.9263,0 -487.90369,-7.236171 -487.90369,-16.162441 0,-8.9262699 478.97739,-16.1624409 487.90369,-16.1624409 8.9263,0 478.8123,7.236171 478.8123,16.1624409 z"
       copytype="single_stretched"
       prop_scale="0.43"
       scale_y_rel="false"
       spacing="0"
       normal_offset="0"
       tang_offset="0"
       prop_units="false"
       vertical_pattern="false"
       fuse_tolerance="0" />
    <filter
       inkscape:collect="always"
       id="filter3836">
      <feGaussianBlur
         inkscape:collect="always"
         stdDeviation="0.13132828"
         id="feGaussianBlur3838" />
    </filter>
    <filter
       inkscape:collect="always"
       id="filter3840">
      <feGaussianBlur
         inkscape:collect="always"
         stdDeviation="0.32970683"
         id="feGaussianBlur3842" />
    </filter>
    <filter
       inkscape:collect="always"
       id="filter3864">
      <feGaussianBlur
         inkscape:collect="always"
         stdDeviation="0.25531999"
         id="feGaussianBlur3866" />
    </filter>
    <filter
       inkscape:collect="always"
       id="filter3910">
      <feGaussianBlur
         inkscape:collect="always"
         stdDeviation="1.1012519"
         id="feGaussianBlur3912" />
    </filter>
  </defs>
  <sodipodi:namedview
     id="base"
     pagecolor="#ffffff"
     bordercolor="#666666"
     borderopacity="1.0"
     inkscape:pageopacity="0.0"
     inkscape:pageshadow="2"
     inkscape:zoom="2.8"
     inkscape:cx="530.62917"
     inkscape:cy="599.65499"
     inkscape:document-units="px"
     inkscape:current-layer="layer4"
     showgrid="false"
     showguides="true"
     inkscape:guide-bbox="true"
     inkscape:window-width="1366"
     inkscape:window-height="706"
     inkscape:window-x="-8"
     inkscape:window-y="-8"
     inkscape:window-maximized="1" />
  <metadata
     id="metadata5201">
    <rdf:RDF>
      <cc:Work
         rdf:about="">
        <dc:format>image/svg+xml</dc:format>
        <dc:type
           rdf:resource="http://purl.org/dc/dcmitype/StillImage" />
        <dc:title />
      </cc:Work>
    </rdf:RDF>
  </metadata>
  <g
     inkscape:groupmode="layer"
     id="layer5"
     inkscape:label="Bod">
    <path
       style="fill:#e7e6fe;fill-opacity:1;stroke:#e7e6fe;stroke-width:1px;stroke-linecap:butt;stroke-linejoin:miter;stroke-opacity:1;"
       d="m 409.21895,433.91542 c -14.70278,-5.44844 -26.40754,8.11203 -32.79038,17.73248 -5.5809,9.81901 -17.27047,16.10308 -25.14943,24.80716 -8.40752,7.63064 -13.81951,16.5394 -17.9711,22.61603 -15.00321,-10.60265 -26.24849,-13.70148 -35.51526,-15.69284 -12.08149,-3.69921 -15.14853,-31.16081 -35.07046,-29.99336 -8.95977,-4.61356 -7.91672,11.65467 -6.33786,19.50317 10.06891,8.40297 18.86658,10.6861 29.04404,19.02192 12.30967,12.44774 42.9665,26.08819 53.27889,28.85294 4.23276,-7.52188 16.12889,-11.64997 23.96285,-17.7775 4.43106,-3.46586 8.88172,-6.92655 13.02381,-10.73308 8.67679,-7.97387 16.07215,-22.96962 24.70293,-25.2901 -3.53465,12.08476 -21.65311,17.85642 -21.38374,32.50795 3.65605,10.98788 18.83201,11.65675 7.81476,26.16905 -9.94886,12.63903 -51.2085,47.00931 -50.63267,52.46277 11.62291,0.73185 44.54632,11.42681 67.29362,11.33995 19.4817,-0.0744 67.01135,7.39505 57.55708,-10.15182 -7.22938,-13.41755 -2.14931,-22.65252 -9.10461,-35.0773 -8.67361,-4.11074 -3.70739,-12.14247 -3.05933,-18.28965 0.86958,-8.24837 3.23801,-17.31068 9.13242,-23.14572 6.36707,-6.30294 17.50429,-19.37351 25.10034,-9.61114 11.98823,10.895 18.82493,13.66926 30.37527,18.18258 19.62548,10.30012 15.36651,-1.53566 14.66289,7.8454 -4.60647,0.33521 -22.47574,15.51744 -36.43896,25.27519 -13.15754,12.07688 -29.94708,-2.11183 -44.00368,2.08873 17.69332,1.06519 -4.70657,40.824 14.44197,37.19542 8.87763,-10.58292 -6.76022,-0.22571 13.52745,-8.31511 -1.71755,-5.05272 16.98311,-15.86273 28.00547,-20.36099 10.86167,-4.43268 25.01194,-10.84398 32.69387,-20.4572 6.5495,-8.1961 14.48146,-11.52113 14.33315,-20.43103 -9.62383,-7.58056 -17.60423,-16.01181 -27.21264,-23.91923 -7.50148,-6.16363 -26.08788,-16.66214 -31.18266,-24.16349 -3.52747,-12.97025 -20.12336,-8.62159 -25.56788,-18.62405 -3.34189,-5.09182 -18.4002,-28.4593 -24.15194,-22.41922 -16.40425,4.96528 -19.13571,12.319 -33.37821,8.85209 z"
       id="path3012"
       inkscape:connector-curvature="0"
       sodipodi:nodetypes="cccccccccaaccccascaacccccccsscccccc" />
    <path
       style="fill:#7f7db1;fill-opacity:1;stroke:#7f7db1;stroke-width:1.0250777px;stroke-linecap:butt;stroke-linejoin:miter;stroke-opacity:1"
       d="m 417.3287,549.14562 c -3.38362,1.12379 -5.16616,0.25165 -7.72871,0 -4.28539,-0.42082 -8.45325,-1.59114 -12.65092,-2.51155 -2.67299,-0.5861 -4.93058,-1.05461 -7.97862,-1.91653 -1.26738,-0.35839 -6.24904,-2.74167 -9.33761,-3.3529 -2.92687,-0.57922 -6.80559,-4.32733 -8.83078,-1.49133 -1.36813,1.91587 -3.1822,3.41482 -4.82208,5.07976 -1.64923,1.67447 -2.51534,3.71266 -5.04413,4.9363 -4.80361,2.32438 11.13566,1.66218 16.70811,2.46471 3.38493,0.48749 6.76352,1.021 10.16026,1.42775 3.11645,0.37318 6.25756,0.54472 9.37255,0.92867 3.28141,0.40446 6.50912,1.21506 9.80899,1.44774 3.19035,0.22495 6.40202,0.0955 9.59727,-0.0543 1.16306,-0.0545 2.86662,0.63316 3.47839,-0.30707 1.31743,-2.02478 -0.36585,-7.43734 -2.73272,-6.65124 z"
       id="path3868"
       inkscape:connector-curvature="0"
       sodipodi:nodetypes="saasssasaaaaaas" />
  </g>
  <g
     inkscape:groupmode="layer"
     id="layer3"
     inkscape:label="Bow">
    <path
       style="fill:#535d6c;fill-opacity:1;stroke:#535d6c;stroke-width:1px;stroke-linecap:butt;stroke-linejoin:miter;stroke-opacity:1;filter:url(#filter3910)"
       d="m 445.783,553.45899 c 4.10232,-3.45253 3.31715,-9.15736 6.47821,-13.11777 1.05802,-4.71601 10.55192,-3.09977 13.87893,-1.52508 3.77449,2.29318 4.47877,5.58565 6.63305,9.52901 2.15368,5.90187 3.70274,13.19398 2.06416,18.98977 -3.85186,3.42176 -9.32489,4.61231 -14.4516,3.75408 -1.63881,-0.85698 -6.60714,-7.30724 -3.97945,-2.14593 2.96385,2.80338 4.74089,7.54031 7.59101,10.9445 2.91308,3.47939 6.04681,6.84341 9.64808,9.6044 3.60146,2.76114 7.71647,4.80473 11.78049,6.82417 5.23617,2.60189 10.62873,4.93521 16.17471,6.78709 4.64998,1.5527 9.36802,3.27805 14.25985,3.59939 7.16159,0.47044 18.04331,-0.87839 21.38623,-2.4933 3.63596,-1.75648 -0.31815,12.52859 -4.54683,16.22552 -4.17697,3.65174 -10.93554,2.25528 -16.48345,2.31005 -4.8421,0.0478 -9.80893,-0.26388 -14.42342,-1.73176 -3.68103,-1.17094 -6.97668,-3.37496 -10.18929,-5.51978 -4.54618,-3.03513 -9.31428,-7.35102 -12.7423,-10.3224 -5.89608,-6.19181 -9.1659,-9.72266 -13.86933,-16.04703 -2.37896,-3.27395 -5.0639,-6.9967 -7.61657,-10.47992 -1.35777,-1.85273 -6.02195,-10.95986 -4.09528,-5.54201 -0.35804,5.31116 -1.00414,9.74466 -2.29635,14.44616 -1.32842,4.83328 -3.18053,9.56032 -5.56114,13.97144 -2.17457,4.02934 -4.58391,8.07284 -7.8798,11.25112 -3.91545,3.77573 -8.67927,6.77025 -13.69728,8.8694 -5.09719,2.13227 -8.4492,2.58606 -16.18415,3.58114 -4.06301,0.52269 3.43094,-7.40468 3.2613,-11.84887 -0.28346,-7.42629 14.84403,-5.77538 21.42592,-10.1494 3.01854,-2.00598 6.02013,-4.28633 8.0972,-7.25641 2.50261,-3.57857 3.30856,-8.08364 4.86471,-12.16379 1.60593,-4.21068 3.67338,-10.40933 4.61401,-12.70788 -4.10822,3.47954 -10.78384,1.92022 -16.23435,2.36343 -4.11981,0.33501 -9.18248,2.81645 -12.39829,0.21959 -4.00656,-3.23541 -2.32084,-10.05147 -2.98537,-15.15821 -0.38289,-2.9424 -2.74375,-6.86097 -0.57237,-8.8832 6.9052,-6.4309 23.43241,0.54959 28.04876,3.82248 z"
       id="path3018"
       inkscape:connector-curvature="0"
       sodipodi:nodetypes="cccccccaaaaasaaaaccacaaaassaaacaaaac" />
    <path
       sodipodi:nodetypes="cccccccaaaaasaaaaccacaaaassaaacaaaac"
       inkscape:connector-curvature="0"
       id="path3872"
       d="m 446.07143,552.36218 c 4.10232,-3.45253 3.31715,-9.15736 6.47821,-13.11777 1.05802,-4.71601 10.55192,-3.09977 13.87893,-1.52508 3.77449,2.29318 4.47877,5.58565 6.63305,9.52901 2.15368,5.90187 3.70274,13.19398 2.06416,18.98977 -3.85186,3.42176 -9.32489,4.61231 -14.4516,3.75408 -1.63881,-0.85698 -6.60714,-7.30724 -3.97945,-2.14593 2.96385,2.80338 4.74089,7.54031 7.59101,10.9445 2.91308,3.47939 6.04681,6.84341 9.64808,9.6044 3.60146,2.76114 7.71647,4.80473 11.78049,6.82417 5.23617,2.60189 10.62873,4.93521 16.17471,6.78709 4.64998,1.5527 9.36802,3.27805 14.25985,3.59939 7.16159,0.47044 18.04331,-0.87839 21.38623,-2.4933 3.63596,-1.75648 -0.31815,12.52859 -4.54683,16.22552 -4.17697,3.65174 -10.93554,2.25528 -16.48345,2.31005 -4.8421,0.0478 -9.80893,-0.26388 -14.42342,-1.73176 -3.68103,-1.17094 -6.97668,-3.37496 -10.18929,-5.51978 -4.54618,-3.03513 -9.31428,-7.35102 -12.7423,-10.3224 -5.89608,-6.19181 -9.1659,-9.72266 -13.86933,-16.04703 -2.37896,-3.27395 -5.0639,-6.9967 -7.61657,-10.47992 -1.35777,-1.85273 -6.02195,-10.95986 -4.09528,-5.54201 -0.35804,5.31116 -1.00414,9.74466 -2.29635,14.44616 -1.32842,4.83328 -3.18053,9.56032 -5.56114,13.97144 -2.17457,4.02934 -4.58391,8.07284 -7.8798,11.25112 -3.91545,3.77573 -8.67927,6.77025 -13.69728,8.8694 -5.09719,2.13227 -8.4492,2.58606 -16.18415,3.58114 -4.06301,0.52269 3.43094,-7.40468 3.2613,-11.84887 -0.28346,-7.42629 14.84403,-5.77538 21.42592,-10.1494 3.01854,-2.00598 6.02013,-4.28633 8.0972,-7.25641 2.50261,-3.57857 3.30856,-8.08364 4.86471,-12.16379 1.60593,-4.21068 3.67338,-10.40933 4.61401,-12.70788 -4.10822,3.47954 -10.78384,1.92022 -16.23435,2.36343 -4.11981,0.33501 -9.18248,2.81645 -12.39829,0.21959 -4.00656,-3.23541 -2.32084,-10.05147 -2.98537,-15.15821 -0.38289,-2.9424 -2.74375,-6.86097 -0.57237,-8.8832 6.9052,-6.4309 23.43241,0.54959 28.04876,3.82248 z"
       style="fill:#7f7db1;fill-opacity:1;stroke:#7f7db1;stroke-width:1px;stroke-linecap:butt;stroke-linejoin:miter;stroke-opacity:1" />
    <path
       inkscape:connector-curvature="0"
       id="path3054"
       d="m 449.6951,551.28155 c 1.69584,-2.82321 2.60622,-6.01223 3.71683,-9.10018 1.2322,-2.90797 4.32799,-4.51708 7.30607,-4.31458 2.03643,-0.60774 4.39809,0.16821 5.35346,2.21032 1.11469,2.07467 -0.81615,3.82345 -2.27555,4.95377 -1.892,2.10575 -4.22261,3.79877 -6.79818,4.86366 -2.26758,0.036 -4.16074,1.53128 -6.33786,1.38553 -0.32157,0.003 -0.64321,0.008 -0.96477,10e-4 z"
       style="fill:#b1ac8f;fill-opacity:1;stroke:#535d6c;stroke-width:1.01783216000000000px;stroke-linecap:butt;stroke-linejoin:miter;stroke-opacity:1;filter:url(#filter3840)" />
    <path
       style="fill:#b1ac8f;fill-opacity:1;stroke:#b1ac8f;stroke-width:1px;stroke-linecap:butt;stroke-linejoin:miter;stroke-opacity:1"
       d="m 448.92857,551.29076 c 1.69765,-2.72224 2.60901,-5.79722 3.7208,-8.77474 1.23352,-2.80397 4.33261,-4.35554 7.31387,-4.16028 2.0386,-0.58601 4.40278,0.16219 5.35917,2.13127 1.11588,2.00048 -0.81702,3.68672 -2.27798,4.77662 -1.89402,2.03044 -4.22711,3.66292 -6.80543,4.68973 -2.27,0.0347 -4.16518,1.47652 -6.34463,1.33598 -0.32191,0.003 -0.64389,0.008 -0.9658,0.001 z"
       id="path3022"
       inkscape:connector-curvature="0" />
    <path
       style="fill:#b1ac8f;fill-opacity:1;stroke:#b1ac8f;stroke-width:1px;stroke-linecap:butt;stroke-linejoin:miter;stroke-opacity:1"
       d="m 442.5,552.71933 c -0.7643,-1.08671 -2.13832,-1.45504 -3.04701,-2.3906 -0.98316,-0.81331 -2.25426,-1.1389 -3.49777,-1.25197 -1.17007,-0.30695 -2.34066,-0.81061 -3.57415,-0.64202 -1.26731,-0.14815 -2.44588,-0.91983 -3.75302,-0.71124 -1.1755,-0.42973 -2.4427,-0.41726 -3.67195,-0.36987 -1.13592,-0.11731 -2.25518,0.16882 -3.29738,0.59382 -0.98598,0.20171 -1.65011,0.90894 -2.43785,1.36673 -0.67514,0.5767 -0.21495,2.04725 0.76831,1.65504 1.14002,-0.0172 2.25672,0.52409 3.37808,0.76176 1.94614,0.58292 3.98367,0.0603 5.96615,0.34681 1.16134,0.15612 2.27112,0.5915 3.45411,0.61892 0.88675,0.0279 1.7583,0.25856 2.62075,0.37662 2.36359,-0.0844 4.77448,0.27368 7.09173,-0.354 z"
       id="path3024"
       inkscape:connector-curvature="0" />
    <path
       style="fill:#b1ac8f;fill-opacity:1;stroke:#535d6c;stroke-width:1.07408714000000010px;stroke-linecap:butt;stroke-linejoin:miter;stroke-opacity:1;filter:url(#filter3836)"
       d="m 442.21042,553.22573 c -0.7619,-1.25764 -2.13161,-1.68391 -3.03745,-2.76663 -0.98007,-0.94124 -2.24718,-1.31805 -3.48679,-1.4489 -1.16639,-0.35523 -2.33331,-0.93812 -3.56293,-0.74301 -1.26333,-0.17145 -2.4382,-1.06452 -3.74123,-0.82312 -1.17181,-0.49732 -2.43503,-0.48289 -3.66043,-0.42804 -1.13235,-0.13577 -2.2481,0.19537 -3.28702,0.68722 -0.98289,0.23344 -1.64493,1.05191 -2.4302,1.58171 -0.67302,0.66742 -0.21427,2.36928 0.7659,1.91538 1.13644,-0.0199 2.24963,0.60652 3.36747,0.88158 1.94003,0.67461 3.97117,0.0698 5.94742,0.40136 1.1577,0.18068 2.26399,0.68454 3.44327,0.71627 0.88396,0.0323 1.75278,0.29923 2.61252,0.43586 2.35617,-0.0977 4.75949,0.31673 7.06947,-0.40968 z"
       id="path3052"
       inkscape:connector-curvature="0" />
    <path
       inkscape:connector-curvature="0"
       id="path3050"
       d="m 442.5,552.71933 c -0.7643,-1.08671 -2.13832,-1.45504 -3.04701,-2.3906 -0.98316,-0.81331 -2.25426,-1.1389 -3.49777,-1.25197 -1.17007,-0.30695 -2.34066,-0.81061 -3.57415,-0.64202 -1.26731,-0.14815 -2.44588,-0.91983 -3.75302,-0.71124 -1.1755,-0.42973 -2.4427,-0.41726 -3.67195,-0.36987 -1.13592,-0.11731 -2.25518,0.16882 -3.29738,0.59382 -0.98598,0.20171 -1.65011,0.90894 -2.43785,1.36673 -0.67514,0.5767 -0.21495,2.04725 0.76831,1.65504 1.14002,-0.0172 2.25672,0.52409 3.37808,0.76176 1.94614,0.58292 3.98367,0.0603 5.96615,0.34681 1.16134,0.15612 2.27112,0.5915 3.45411,0.61892 0.88675,0.0279 1.7583,0.25856 2.62075,0.37662 2.36359,-0.0844 4.77448,0.27368 7.09173,-0.354 z"
       style="fill:#b1ac8f;fill-opacity:1;stroke:#b1ac8f;stroke-width:1px;stroke-linecap:butt;stroke-linejoin:miter;stroke-opacity:1" />
    <path
       sodipodi:nodetypes="sssss"
       inkscape:connector-curvature="0"
       id="path3037"
       d="m 459.52221,560.79671 c 0,5.38576 -0.52681,9.5964 -4.95356,11.14074 -5.0672,1.76777 -8.61536,-2.85079 -8.61536,-8.23655 0,-5.38576 -7.65903,-10.60885 1.9231,-13.53986 8.58932,-2.62732 11.64582,5.24991 11.64582,10.63567 z"
       style="fill:#535d6c;fill-opacity:1;stroke:#7f7db1;stroke-width:0.18426041;stroke-opacity:1;filter:url(#filter3864)"
       transform="matrix(1.0753124,0,0,0.99971617,-34.65726,0.15922106)" />
    <path
       transform="matrix(0.15562538,0,0,0.2181643,405.27626,442.22725)"
       style="fill:#7f7db1;fill-opacity:1;stroke:#7f7db1;stroke-opacity:1"
       d="m 342.07659,541.75065 c 0,24.68672 -3.38512,43.98706 -31.83001,51.06583 -32.56026,8.10292 -55.3596,-13.06717 -55.3596,-37.75389 0,-24.68671 -49.21453,-48.6278 12.35723,-62.06264 55.19226,-12.04286 74.83238,24.06399 74.83238,48.7507 z"
       id="path3034"
       inkscape:connector-curvature="0"
       sodipodi:nodetypes="sssss" />
  </g>
  <g
     inkscape:groupmode="layer"
     id="layer4"
     inkscape:label="Default">
    <path
       style="fill:#ffffff;fill-opacity:1;stroke:#ffffff;stroke-width:0.30049059px;stroke-linecap:butt;stroke-linejoin:miter;stroke-opacity:1"
       d="m 479.47449,273.01266 c 0.30807,0.002 0.59541,0.51696 0.94459,1.39432 0.34917,0.87735 0.79739,2.11281 1.21437,3.76851 0.47042,1.78446 0.9743,4.01783 0.97501,6.73076 -0.02,2.71766 -0.54294,5.62221 -1.4074,8.35907 -0.84452,2.5409 -2.03854,4.70816 -2.9976,6.52603 -0.95823,1.86997 -2.04693,3.83256 -3.36155,5.61604 -0.8661,1.2431 -1.79652,2.4189 -2.71703,3.40624 -0.92052,0.98734 -1.82637,1.78806 -2.55165,2.3635 0.41277,-0.13627 0.6446,-0.73749 0.82266,-1.29277 0.17806,-0.55528 0.2873,-1.04749 0.31521,-1.17175 0.002,-0.007 0.003,-0.0147 0.005,-0.0237 -0.0269,-0.12841 -0.1077,-0.51521 -0.22855,-0.93219 -0.12085,-0.41699 -0.27218,-0.85418 -0.52588,-0.92967 -0.0934,-0.0114 -0.12251,-0.006 -0.0167,0.0624 0.10581,0.0683 0.34867,0.19917 0.75096,0.46994 0.51434,0.2905 1.22757,0.56413 2.1696,0.8705 0.94203,0.30638 2.11359,0.64615 3.47908,1.15205 2.19441,0.83646 4.94348,1.72197 7.79292,3.14029 0,0 0,0 1e-5,1e-5 2.19002,1.11286 4.36229,2.45036 6.29566,3.99008 2.0732,1.66126 3.84543,3.49953 5.21698,5.28845 0,0 0,10e-6 0,10e-6 1.07325,1.38179 1.96043,2.85935 2.47532,4.22629 0.50133,1.37513 0.68339,2.59334 0.65649,3.43511 -0.0269,0.84177 -0.23835,1.30823 -0.50645,1.35278 -0.2681,0.0446 -0.5821,-0.31958 -1.02254,-0.91186 -0.44044,-0.59229 -1.03224,-1.40923 -1.8357,-2.35082 -0.72344,-0.83195 -1.72394,-1.68041 -2.94384,-2.63919 0,0 0,0 0,0 -1.54971,-1.19282 -3.36647,-2.38023 -5.3505,-3.41007 -1.77951,-0.92293 -3.74965,-1.68233 -5.76841,-2.33083 0,0 0,0 0,0 -2.28469,-0.73029 -4.88612,-1.13514 -7.45332,-1.74477 -0.98404,-0.20765 -2.10071,-0.37184 -3.25348,-0.60622 -1.15278,-0.23439 -2.34071,-0.53907 -3.46382,-0.92197 -0.74964,-0.20295 -1.54786,-0.57631 -2.29455,-1.0494 -0.74669,-0.47308 -1.44264,-1.04375 -2.03206,-1.60412 -0.75167,-0.62667 -1.19457,-1.61077 -1.45304,-2.43738 -0.25847,-0.82662 -0.34613,-1.49012 -0.37699,-1.71249 0.002,-0.0148 0.003,-0.0278 0.005,-0.039 0.025,-0.20459 0.11104,-1.00372 0.4278,-2.0329 0.31675,-1.02919 0.88714,-2.28028 1.90293,-3.04721 0.49932,-0.29068 1.16421,-0.74584 1.97012,-1.43173 0.80592,-0.6859 1.75244,-1.60736 2.86026,-2.71659 1.02854,-1.00884 2.09802,-2.46235 3.35743,-4.16568 1.28918,-1.8048 2.58268,-3.36619 3.3913,-4.92263 1.10314,-2.13978 1.99433,-4.30842 2.4827,-6.38361 0.49599,-1.95595 0.57922,-4.0588 0.7273,-5.86869 0.12764,-1.57065 0.23779,-2.98988 0.46883,-3.96612 0.23104,-0.97623 0.54553,-1.51091 0.8536,-1.50892 z"
       id="path5265"
       inkscape:connector-curvature="0"
       sodipodi:nodetypes="caaaaascaaaac"
       inkscape:path-effect="#path-effect5270"
       inkscape:original-d="m 498.2758,330.81489 c -0.28028,-1.6866 -0.80123,-2.77723 -1.50414,-4.02529 -0.71532,-1.27018 -1.68938,-2.39144 -2.70958,-3.43274 -1.59642,-1.62947 -3.38272,-3.08834 -5.28374,-4.34926 -1.89168,-1.2547 -3.93808,-2.28414 -6.03204,-3.16046 -2.46144,-1.0301 -5.06998,-1.66715 -7.62312,-2.44253 -2.05175,-0.62311 -4.18653,-0.95432 -6.18299,-1.77537 -1.68455,-0.69276 -4.23923,-2.20422 -2.4721,-4.05236 2.09252,-1.47997 3.53307,-3.15186 5.04953,-4.95903 1.27137,-1.51508 2.31654,-3.21035 3.35949,-4.89086 1.15223,-1.85663 2.37687,-3.69794 3.19445,-5.72433 0.95084,-2.35663 1.67701,-4.8443 1.94505,-7.37134 0.40899,-3.85547 -0.55856,-9.07091 -0.54212,-11.61866" />
    <path
       style="fill:#ffffff;fill-opacity:1;stroke:#ffffff;stroke-width:0.30049059px;stroke-linecap:butt;stroke-linejoin:miter;stroke-opacity:1"
       d="m 515.74801,269.79312 c 0.0768,0.0855 0.0828,0.24193 -0.0382,0.44934 -0.12096,0.20741 -0.38699,0.45827 -0.68144,0.65752 -0.38196,0.2696 -0.91217,0.54691 -1.55891,0.78401 -0.46153,0.18066 -1.00976,0.3543 -1.66216,0.4613 -0.6524,0.10701 -1.40933,0.14796 -2.284,0.0187 -1.67544,-0.27164 -3.55614,-0.92752 -5.39652,-2.08526 -1.84037,-1.15775 -3.63726,-2.81946 -5.08284,-4.92318 -2.56735,-3.60029 -5.50508,-7.48941 -8.7287,-11.05729 0,-1e-5 0,-1e-5 0,-1e-5 -1.5229,-1.67791 -2.98887,-3.32399 -4.44307,-4.79063 -1.45419,-1.46664 -2.89845,-2.75127 -4.36475,-3.75412 -2.05656,-1.30627 -3.65683,-2.60292 -4.91808,-3.41468 -1.26124,-0.81177 -2.1862,-1.1347 -2.89458,-0.90124 -1.58814,-0.0161 -2.92689,0.37138 -3.8119,0.71582 -0.88501,0.34444 -1.3534,0.64337 -1.42734,0.6813 -0.0498,0.0255 -0.30245,0.13339 -0.69684,0.3523 -0.39439,0.21891 -0.93327,0.5515 -1.48161,1.06329 -0.57235,0.44559 -1.17524,1.19368 -1.64649,2.28523 -0.47124,1.09155 -0.80944,2.53023 -0.84304,4.07598 0.019,0.95081 0.21064,1.99445 0.59721,2.98164 0.38656,0.98719 0.96788,1.91594 1.74728,2.59179 1.33669,1.27128 3.23759,2.31799 5.39137,3.46205 2.15377,1.14406 4.55185,2.39614 6.82109,4.05624 0,10e-6 0,10e-6 0,10e-6 2.33723,1.69879 4.43217,3.71364 6.09646,5.87527 1.6643,2.16164 2.89497,4.46759 3.6606,6.71312 0.62575,1.99033 0.79503,3.79486 0.77894,5.3627 -0.0161,1.56784 -0.21778,2.90023 -0.45266,3.9753 -0.23488,1.07507 -0.50567,1.89443 -0.75526,2.44309 -0.2496,0.54865 -0.48126,0.82747 -0.68586,0.8084 -0.40921,-0.0381 -0.66657,-1.29392 -0.97488,-3.34435 -0.15415,-1.02522 -0.3261,-2.24385 -0.62828,-3.53217 -0.30218,-1.28832 -0.73378,-2.64621 -1.50628,-3.88227 -0.90674,-1.61344 -2.17291,-3.19368 -3.76399,-4.65193 -1.59107,-1.45825 -3.50407,-2.79489 -5.55931,-3.96631 0,0 0,0 0,0 -1.79511,-0.99573 -3.96864,-1.75491 -6.33115,-2.69097 -2.36251,-0.93605 -4.90846,-2.06149 -7.40165,-3.74542 -2.00438,-1.47217 -3.57959,-3.32524 -4.69582,-5.34047 -1.11624,-2.01523 -1.77329,-4.19057 -2.00361,-6.33792 -0.40274,-3.04168 0.006,-5.9851 0.89123,-8.48507 0.88479,-2.49998 2.2381,-4.55946 3.61772,-6.11448 1.23196,-1.31284 2.37579,-2.18711 3.21363,-2.76373 0.83783,-0.57661 1.37107,-0.86225 1.48032,-0.92059 0.0812,-0.0434 0.39399,-0.20597 0.92561,-0.4399 0.53161,-0.23392 1.28341,-0.53801 2.24652,-0.8272 1.92622,-0.57839 4.73606,-1.10076 8.09391,-0.68599 2.63947,0.52507 5.12939,1.54244 7.2702,2.89315 2.14082,1.3507 3.93171,3.02982 5.38356,4.52615 1.83138,1.63141 3.48382,3.43299 4.98443,5.29761 1.50061,1.86463 2.85163,3.79006 4.12751,5.65053 0,0 0,0 0,0 3.01775,4.32263 5.53483,8.83876 7.53638,12.97063 0.78083,1.66415 1.81532,3.12583 2.95057,4.25739 1.13524,1.13156 2.37085,1.93402 3.55915,2.46013 0.77504,0.44466 1.83644,0.48726 2.71814,0.55215 0.58874,0.0342 1.07703,0.0464 1.47354,0.0533 0.352,-0.0189 0.58081,0.025 0.76095,0.0485 0.18013,0.0235 0.31606,0.0458 0.39286,0.1313 z"
       id="path5278"
       inkscape:connector-curvature="0"
       sodipodi:nodetypes="cassaaaaasac"
       inkscape:path-effect="#path-effect5282"
       inkscape:original-d="m 486.98675,288.6811 c 0.33187,-3.56154 0.55573,-8.09063 -0.9973,-11.67414 -1.89056,-4.36243 -5.77365,-8.14212 -9.54018,-10.60332 -4.17027,-2.72504 -9.08533,-3.97783 -12.97263,-6.97734 -2.71261,-2.0931 -4.26156,-5.38993 -4.52196,-8.62591 -0.29541,-3.67118 0.92719,-7.84424 3.49924,-10.48038 2.8933,-2.96535 7.56149,-4.58459 11.68884,-4.22506 3.9172,0.34121 7.16106,3.41351 10.23321,5.86761 3.44798,2.75432 6.22218,6.2853 8.95988,9.74645 3.0001,3.79281 5.67242,7.85058 8.13254,12.01396 2.4554,4.15539 4.98791,5.88615 8.49454,6.86298 1.875,0.52231 5.08237,-0.16181 5.78508,-0.79283" />
    <path
       style="fill:#ffffff;fill-opacity:1;stroke:#ffffff;stroke-width:0.30049059px;stroke-linecap:butt;stroke-linejoin:miter;stroke-opacity:1"
       d="m 511.34795,267.11017 c 0.0615,-0.36456 0.98836,-0.55129 2.51887,-0.76768 1.53051,-0.21639 3.67114,-0.50816 6.28438,-0.88131 1.21705,-0.1855 2.55346,-0.51138 4.06362,-0.86773 1.51015,-0.35635 3.19548,-0.74075 5.12144,-0.9341 2.63138,-0.31062 5.72103,-0.65254 9.21371,-0.0842 3.12828,0.56719 6.09552,1.74264 8.68046,3.24345 1.58272,0.86213 3.16305,1.88102 4.61978,3.0744 1.45672,1.19338 2.78846,2.56174 3.92442,4.0595 1.32247,1.82817 2.22501,3.69676 2.82273,5.39135 0.59772,1.69458 0.89459,3.21531 1.04713,4.41561 0.22376,1.71202 0.1744,2.76623 0.16811,2.91792 -0.005,0.128 -0.0387,0.90829 -0.2682,2.18971 -0.22954,1.28143 -0.66855,3.07058 -1.61759,5.10535 -0.48388,1.18784 -1.20763,2.5605 -2.31687,3.97426 -1.10925,1.41375 -2.60555,2.86799 -4.63649,4.09615 -1.14365,0.77932 -2.61787,1.34866 -4.32947,1.53115 -1.71159,0.18249 -3.65975,-0.0231 -5.69997,-0.80872 -3.46316,-1.85833 -6.28345,-4.21345 -8.90924,-6.10073 -1.54004,-1.03896 -2.74993,-2.13324 -3.81599,-3.04441 -1.06606,-0.91118 -1.9912,-1.63585 -2.94307,-2.01124 -2.38506,-1.06363 -4.97976,-1.39522 -7.19528,-1.36863 -1.13046,0.0856 -2.15203,0.11072 -3.01888,0.1804 -0.86686,0.0697 -1.58203,0.18149 -2.16245,0.31952 -0.58041,0.13803 -1.02999,0.29776 -1.37513,0.39537 -0.34515,0.0976 -0.58899,0.12777 -0.71261,0.0139 -0.12362,-0.11386 -0.12144,-0.37182 0.0519,-0.74366 0.17338,-0.37184 0.52286,-0.85412 1.08586,-1.35793 0.56301,-0.5038 1.34377,-1.02496 2.30154,-1.47483 0.95778,-0.44987 2.09476,-0.82515 3.24297,-1.09492 2.59209,-0.72324 5.92043,-1.01733 9.47952,-0.18155 1.78837,0.50021 3.40727,1.28595 4.84987,2.10862 1.4426,0.82268 2.70985,1.67793 3.84333,2.25638 3.2971,1.69589 6.16303,3.56933 8.7798,4.51802 -0.0566,0.13016 0.15379,-0.0151 0.51803,-0.23656 0.36423,-0.22151 0.88158,-0.51813 1.45167,-0.73561 0.53859,-0.26645 0.94756,-0.91113 1.33262,-1.66935 0.38506,-0.75822 0.74618,-1.62878 1.11786,-2.44114 0.37862,-1.06913 0.50725,-2.02101 0.5616,-2.69701 0.0543,-0.676 0.039,-1.08356 0.0418,-1.1503 0.003,-0.0791 0.0744,-0.62399 0.051,-1.53677 -0.0213,-0.64574 -0.1003,-1.48232 -0.32867,-2.44373 -0.22837,-0.9614 -0.60794,-2.04874 -1.21837,-3.12483 -0.42135,-0.84216 -1.09836,-1.7017 -1.99915,-2.58679 -0.9008,-0.88509 -2.02416,-1.79645 -3.26267,-2.76127 -1.77552,-1.3229 -3.75841,-2.46574 -5.85278,-3.14684 -2.01703,-0.74861 -4.65441,-0.79766 -7.40043,-0.99836 -1.44565,-0.12447 -3.00088,-0.0454 -4.56905,0.008 -1.56818,0.0537 -3.14819,0.0795 -4.63993,-0.0418 -2.6932,-0.24738 -5.00361,-0.64429 -6.56919,-1.1295 -1.56559,-0.48522 -2.39407,-1.01325 -2.33258,-1.37781 z"
       id="path5290"
       inkscape:connector-curvature="0"
       sodipodi:nodetypes="caaasaaaaaaaac"
       inkscape:path-effect="#path-effect5294"
       inkscape:original-d="m 510.81136,291.14942 c 1.30104,-1.41258 4.50126,-2.40435 6.97569,-2.79027 2.75288,-0.42936 5.68344,-0.25451 8.3374,0.59354 2.87315,0.91807 5.14539,3.14905 7.72613,4.71033 2.9421,1.77988 5.73321,3.87292 8.84452,5.30937 1.83371,0.84659 4.25371,0.16819 5.99957,-0.8473 2.21698,-1.28954 3.69327,-3.73235 4.70192,-6.09045 1.03407,-2.41753 1.43256,-5.18071 1.18604,-7.79853 -0.25476,-2.705 -1.20311,-5.42593 -2.70845,-7.68776 -1.71865,-2.58235 -4.29927,-4.55487 -6.90301,-6.24098 -2.22099,-1.43825 -4.6931,-2.58004 -7.26662,-3.19515 -2.69723,-0.64467 -5.53443,-0.51373 -8.30707,-0.45705 -3.07915,0.0629 -6.11807,0.81118 -9.19702,0.88416 -2.95346,0.07 -5.89737,0.0693 -8.85251,-0.42916" />
    <path
       style="fill:#ffffff;fill-opacity:1;stroke:#ffffff;stroke-width:0.30049059px;stroke-linecap:butt;stroke-linejoin:miter;stroke-opacity:1"
       d="m 505.44547,331.07173 c -0.3288,-0.27232 -0.20375,-1.02053 -0.0537,-2.08276 0.15008,-1.06223 0.28438,-2.48282 0.40863,-4.14779 0.0525,-1.07646 -0.12108,-2.30082 -0.31078,-3.72223 -0.1897,-1.42141 -0.37043,-3.04519 -0.30091,-4.781 0,0 0,0 0,0 0.0914,-3.21287 0.49732,-5.88508 0.68168,-7.02857 0.0454,-0.32187 0.0759,-0.52063 0.084,-0.55538 0.0156,-0.0668 0.21444,-0.70921 0.61045,-1.83178 0.39601,-1.12256 0.98665,-2.75162 2.0059,-4.62892 0.71094,-1.26781 1.58992,-2.71103 2.6577,-4.10838 1.06778,-1.39736 2.33017,-2.73761 3.70283,-3.79842 0.87257,-0.67321 1.81019,-1.25519 2.71684,-1.68576 0.90666,-0.43058 1.78045,-0.70964 2.5298,-0.84386 0.74934,-0.13422 1.37266,-0.12641 1.80943,-0.0295 0.43677,0.0969 0.6864,0.27814 0.7363,0.50256 0.0499,0.22443 -0.0971,0.48283 -0.35474,0.78542 -0.2576,0.30259 -0.62403,0.65397 -1.03712,1.09072 -0.4131,0.43675 -0.87275,0.9618 -1.3546,1.57955 -0.48185,0.61775 -0.98693,1.32836 -1.52123,2.08033 -0.67678,1.01527 -1.2297,2.21065 -1.71102,3.49985 -0.48132,1.2892 -0.9022,2.66654 -1.33201,3.96682 -0.37832,1.26896 -0.53805,2.60407 -0.68523,3.64195 -0.14718,1.03787 -0.26247,1.76122 -0.27982,1.83098 -0.009,0.0363 -0.0734,0.23399 -0.19128,0.57353 -0.34549,1.00348 -1.17013,3.29352 -1.91022,5.96953 0,0 0,0 0,0 -0.32026,1.02478 -0.50546,2.39853 -0.77464,3.93381 -0.26918,1.53529 -0.64498,3.2201 -1.27887,4.74436 -0.77766,1.7528 -1.82057,3.28251 -2.76979,4.16623 -0.94921,0.88373 -1.74884,1.15106 -2.07764,0.87874 z"
       id="path5302"
       inkscape:connector-curvature="0"
       sodipodi:nodetypes="caaaaac"
       inkscape:path-effect="#path-effect5306"
       inkscape:original-d="m 522.72368,292.32991 c -2.367,0.52634 -4.36141,2.10598 -6.03003,3.7963 -2.11008,2.13752 -3.48248,4.9418 -4.70178,7.68674 -0.92151,2.07454 -1.38442,4.3274 -1.92834,6.53127 -0.52928,2.14466 -0.98711,4.31175 -1.29595,6.49905 -0.40176,2.84541 0.0124,5.81218 -0.72091,8.5907 -0.52808,2.00114 -1.28998,4.05461 -2.6012,5.63776" />
    <path
       style="fill:#552200;fill-opacity:1;stroke:#552200;stroke-width:1px;stroke-linecap:butt;stroke-linejoin:miter;stroke-opacity:1"
       d="m 611.81392,469.14102 c -12.29824,18.11693 -32.80377,29.09791 -54.21662,32.14347 -34.51833,6.9077 -70.86382,-3.66122 -99.49412,-23.22648 -23.9414,-16.79085 -43.31684,-42.12141 -47.05852,-71.75964 -4.07275,-23.07192 -3.69276,-48.49557 9.43526,-68.77345 15.74933,-21.47749 49.0002,-23.72582 70.18144,-9.29784 12.06289,8.3586 16.56342,23.48321 16.30463,37.54851 1.16533,22.88318 9.57962,46.27959 27.58817,61.26151 11.9427,9.95358 27.37509,17.85668 43.27114,16.48582 14.48938,-2.33336 24.60344,-14.47478 23.00171,-30.20642 -5.82376,-12.37656 -15.094,-13.77565 -24.68225,-11.35319 -8.28202,3.08088 -9.56833,19.7103 1.49101,19.9435 -1.57894,8.15919 -17.48092,2.5026 -17.72546,-6.11084 -3.58016,-11.43033 1.61956,-25.84296 13.89172,-29.26904 16.46566,-6.03104 39.04882,-0.36923 48.73591,19.14504 11.16868,21.78469 1.73593,47.56585 -10.72402,63.46905 z"
       id="path5410"
       inkscape:connector-curvature="0"
       sodipodi:nodetypes="cccccccccccccccc" />
    <path
       style="fill:#803300;stroke:#803300;stroke-width:1px;stroke-linecap:butt;stroke-linejoin:miter;stroke-opacity:1"
       d="m 562.12183,471.11564 c -0.0231,0.17801 -0.3327,0.29383 -0.84308,0.50915 -0.25519,0.10765 -0.56439,0.24523 -0.95578,0.40921 -0.39139,0.16397 -0.86451,0.35774 -1.48594,0.50231 -1.87733,0.49844 -4.47141,1.17217 -7.69529,1.89803 -1.61194,0.36293 -3.38359,0.73135 -5.31591,1.03346 -1.93233,0.30211 -4.02553,0.53766 -6.28576,0.59347 -4.3853,0.0963 -9.18952,-0.10723 -14.15933,-0.70448 -4.96982,-0.59724 -10.10276,-1.58955 -15.13618,-2.96445 -5.36227,-1.46336 -10.6144,-3.33672 -15.47821,-5.46502 -4.8638,-2.12831 -9.33755,-4.50897 -13.22095,-6.87304 -5.06179,-3.09931 -8.97703,-6.26992 -11.69194,-8.64297 -2.71492,-2.37305 -4.24984,-3.94425 -4.4385,-4.13962 -0.13384,-0.13861 -0.94313,-1.00022 -2.22884,-2.48454 -1.40399,-1.62674 -3.28714,-3.98825 -5.31511,-6.94258 -2.02798,-2.95433 -4.18909,-6.50648 -6.40653,-10.33124 -1.66741,-2.82823 -3.52233,-5.93189 -5.31811,-9.32803 -1.79577,-3.39613 -3.52632,-7.08716 -4.86855,-11.08532 -1.90295,-5.80616 -3.39594,-11.86985 -4.35474,-17.79235 -0.9588,-5.9225 -1.38227,-11.6989 -1.35739,-16.92346 0.0352,-3.68576 0.58096,-6.93056 1.17931,-9.76698 0.59834,-2.83643 1.25012,-5.26614 1.78283,-7.27509 0.53271,-2.00894 0.95641,-3.59705 1.29865,-4.69121 0.34224,-1.09415 0.61612,-1.69226 0.86678,-1.67811 0.25066,0.0141 0.47044,0.64453 0.60991,1.81059 0.13948,1.16606 0.1854,2.86845 0.11049,4.98388 -0.0749,2.11543 -0.28066,4.64286 -0.43929,7.42023 -0.15863,2.77737 -0.27083,5.80287 0.13026,8.89779 0.57223,4.9184 1.53674,10.28336 2.95395,15.7313 1.41721,5.44794 3.28501,10.9754 5.46738,16.23956 1.33352,3.25254 3.09095,6.33967 4.96833,9.32148 1.87739,2.98182 3.86875,5.86098 5.72227,8.64372 2.46046,3.62998 4.65533,6.81574 6.59897,9.34525 1.94364,2.52951 3.62931,4.41333 4.85993,5.67369 1.23428,1.27717 1.99155,2.01429 2.11164,2.13838 0.16928,0.17491 1.48257,1.64778 3.76503,3.88185 2.28246,2.23406 5.54484,5.22431 9.74733,8.15834 3.37499,2.36294 7.29578,4.79957 11.60684,7.06648 4.31106,2.26691 9.01106,4.36157 13.86299,6.13167 4.53128,1.65297 9.20367,3.00064 13.78137,4.01685 4.5777,1.0162 9.05853,1.70163 13.20257,2.12853 1.93725,0.21852 3.84036,0.25768 5.6654,0.23238 1.82504,-0.0253 3.57182,-0.1148 5.19794,-0.19531 3.25222,-0.16101 6.01535,-0.25519 8.0051,-0.15489 0.4694,0.0323 0.96253,0.0113 1.40979,0.0195 0.44725,0.008 0.84894,0.0424 1.16972,0.10759 0.64156,0.13047 0.94372,0.36597 0.92065,0.54398 z"
       id="path3928"
       inkscape:connector-curvature="0"
       sodipodi:nodetypes="caaaaaaaac"
       inkscape:path-effect="#path-effect3949"
       inkscape:original-d="m 440.69326,348.97278 c -0.4406,7.80334 -2.77806,15.47954 -2.3581,23.26194 0.6122,11.34482 3.13331,22.68464 7.06673,33.34334 2.52097,6.83126 6.56828,13.02146 10.43863,19.18927 3.52146,5.61183 7.12443,11.25254 11.59027,16.14638 5.05165,5.5358 10.71169,10.63305 16.99164,14.72285 8.36379,5.4469 17.56886,9.75578 27.0845,12.76811 9.07747,2.87362 18.6254,4.53833 28.13972,4.90715 6.38501,0.24751 12.72649,-1.16698 19.0827,-1.82139 1.13172,-0.11652 2.24828,-0.52305 3.39248,-0.37479" />
  </g>
</svg>
