<?xml version="1.0" encoding="UTF-8" standalone="no"?>
<!-- Created with Inkscape (http://www.inkscape.org/) -->

<svg
   xmlns:dc="http://purl.org/dc/elements/1.1/"
   xmlns:cc="http://creativecommons.org/ns#"
   xmlns:rdf="http://www.w3.org/1999/02/22-rdf-syntax-ns#"
   xmlns:svg="http://www.w3.org/2000/svg"
   xmlns="http://www.w3.org/2000/svg"
   xmlns:xlink="http://www.w3.org/1999/xlink"
   xmlns:sodipodi="http://sodipodi.sourceforge.net/DTD/sodipodi-0.dtd"
   xmlns:inkscape="http://www.inkscape.org/namespaces/inkscape"
   version="1.2"
   width="744.09448"
   height="1052.3622"
   id="svg3168"
   inkscape:version="0.48.4 r9939"
   sodipodi:docname="missing_text.svg">
  <sodipodi:namedview
     pagecolor="#ffffff"
     bordercolor="#666666"
     borderopacity="1"
     objecttolerance="10"
     gridtolerance="10"
     guidetolerance="10"
     inkscape:pageopacity="0"
     inkscape:pageshadow="2"
     inkscape:window-width="640"
     inkscape:window-height="480"
     id="namedview13"
     showgrid="false"
     inkscape:zoom="0.22425739"
     inkscape:cx="372.04724"
     inkscape:cy="526.18109"
     inkscape:window-x="0"
     inkscape:window-y="0"
     inkscape:window-maximized="0"
     inkscape:current-layer="svg3168" />
  <defs
     id="defs3170" />
  <metadata
     id="metadata3173">
    <rdf:RDF>
      <cc:Work
         rdf:about="">
        <dc:format>image/svg+xml</dc:format>
        <dc:type
           rdf:resource="http://purl.org/dc/dcmitype/StillImage" />
        <dc:title />
      </cc:Work>
    </rdf:RDF>
  </metadata>
  <g
     id="layer1">
	 <def>
    <path
       d="m 381.19724,458.76142 c -14.70278,-5.44844 -26.40754,8.11203 -32.79038,17.73248 -5.5809,9.81901 -17.27047,16.10308 -25.14943,24.80716 -8.40752,7.63064 -13.81951,16.5394 -17.9711,22.61603 -15.00321,-10.60265 -26.24849,-13.70148 -35.51526,-15.69284 -12.08149,-3.69921 -15.14853,-31.16081 -35.07046,-29.99336 -8.95977,-4.61356 -7.91672,11.65467 -6.33786,19.50317 10.06891,8.40297 18.86658,10.6861 29.04404,19.02192 12.30967,12.44774 42.9665,26.08819 53.27889,28.85294 4.23276,-7.52188 16.12889,-11.64997 23.96285,-17.7775 4.43106,-3.46586 8.88172,-6.92655 13.02381,-10.73308 8.67679,-7.97387 16.07215,-22.96962 24.70293,-25.2901 -3.53465,12.08476 -21.65311,17.85642 -21.38374,32.50795 3.65605,10.98788 18.83201,11.65675 7.81476,26.16905 -9.94886,12.63903 -51.2085,47.00931 -50.63267,52.46277 11.62291,0.73185 44.54632,11.42681 67.29362,11.33995 19.4817,-0.0744 67.01135,7.39505 57.55708,-10.15182 -7.22938,-13.41755 -2.14931,-22.65252 -9.10461,-35.0773 -8.67361,-4.11074 -3.70739,-12.14247 -3.05933,-18.28965 0.86958,-8.24837 3.23801,-17.31068 9.13242,-23.14572 6.36707,-6.30294 17.50429,-19.37351 25.10034,-9.61114 11.98823,10.895 18.82493,13.66926 30.37527,18.18258 19.62548,10.30012 15.36651,-1.53566 14.66289,7.8454 -4.60647,0.33521 -22.47574,15.51744 -36.43896,25.27519 -13.15754,12.07688 -29.94708,-2.11183 -44.00368,2.08873 17.69332,1.06519 -4.70657,40.824 14.44197,37.19542 8.87763,-10.58292 -6.76022,-0.22571 13.52745,-8.31511 -1.71755,-5.05272 16.98311,-15.86273 28.00547,-20.36099 10.86167,-4.43268 25.01194,-10.84398 32.69387,-20.4572 6.5495,-8.1961 14.48146,-11.52113 14.33315,-20.43103 -9.62383,-7.58056 -17.60423,-16.01181 -27.21264,-23.91923 -7.50148,-6.16363 -26.08788,-16.66214 -31.18266,-24.16349 -3.52747,-12.97025 -20.12336,-8.62159 -25.56788,-18.62405 -3.34189,-5.09182 -18.4002,-28.4593 -24.15194,-22.41922 -16.40425,4.96528 -19.13571,12.319 -33.37821,8.85209 z"
       id="textPath1"
       style="fill:white;stroke:white"/>
	   </def>
    <text
       x="2142.5"
       y="516.64789"
       id="text3187"
       xml:space="preserve"
       style="font-size:40px;font-style:normal;font-weight:normal;line-height:125%;letter-spacing:0px;word-spacing:0px;fill:#000000;fill-opacity:1;stroke:none;font-family:Sans"
       sodipodi:linespacing="125%"><tspan
         x="2142.5"
         y="516.64789"
         id="tspan3189" /></text>
    <flowRoot
       id="flowRoot3197"
       xml:space="preserve"
       style="font-size:10px;font-style:normal;font-variant:normal;font-weight:normal;font-stretch:normal;line-height:125%;letter-spacing:0px;word-spacing:0px;fill:#37483e;fill-opacity:1;stroke:none;font-family:Calibri;-inkscape-font-specification:Calibri"><flowRegion
         id="flowRegion3199"><use
           id="use3201"
           x="0"
           y="0"
           width="744.09448"
           height="1052.3622"
           xlink:href="#textPath1" /></flowRegion><flowPara
         id="flowPara3203">If you can see this text then my logo hasn't loaded properly, but don't worry, you're not missing out too much!</flowPara></flowRoot>  
		 </g>
</svg>
