<?xml version="1.0" encoding="UTF-8" standalone="no"?>
<!-- Created with Inkscape (http://www.inkscape.org/) -->

<svg
   xmlns:dc="http://purl.org/dc/elements/1.1/"
   xmlns:cc="http://creativecommons.org/ns#"
   xmlns:rdf="http://www.w3.org/1999/02/22-rdf-syntax-ns#"
   xmlns:svg="http://www.w3.org/2000/svg"
   xmlns="http://www.w3.org/2000/svg"
   xmlns:inkscape="http://www.inkscape.org/namespaces/inkscape"
   version="1.1"
   width="744.09448"
   height="1052.3622"
   id="svg2">
  <defs
     id="defs4">
    <inkscape:path-effect
       effect="skeletal"
       id="path-effect3150" />
    <inkscape:path-effect
       effect="skeletal"
       id="path-effect3132" />
    <inkscape:path-effect
       effect="skeletal"
       id="path-effect3124" />
    <inkscape:path-effect
       effect="skeletal"
       id="path-effect3116" />
    <inkscape:path-effect
       effect="skeletal"
       id="path-effect3108" />
  </defs>
  <metadata
     id="metadata7">
    <rdf:RDF>
      <cc:Work
         rdf:about="">
        <dc:format>image/svg+xml</dc:format>
        <dc:type
           rdf:resource="http://purl.org/dc/dcmitype/StillImage" />
        <dc:title></dc:title>
      </cc:Work>
    </rdf:RDF>
  </metadata>
  <g
     id="layer2"
     style="display:inline">
    <path
       d="m 63.63961,501.82905 c 11.371472,37.68502 24.651877,161.2588 31.977637,173.46214 42.074063,-11.32103 50.657813,-12.58908 91.188003,-16.97793 35.08762,-5.0714 65.42118,-9.44673 84.91872,-9.53176 10.91233,-2.58402 1.74133,1.81206 7.90797,5.72762 7.84114,4.97881 17.81552,1.52237 27.84103,0.61057 10.21122,-2.63857 19.789,-4.02262 13.77656,-14.00926 30.33765,-7.08544 70.73579,-14.2289 108.32439,-18.17514 15.73694,-1.54098 40.09711,-3.23569 56.12018,-4.23994 23.58247,0.24081 -15.44643,-31.2772 -29.35769,-57.2673 -12.16013,-17.22424 -26.19704,-32.20803 -34.53512,-48.70964 -13.01833,-16.37506 -25.57148,-34.64955 -32.7698,-47.8978 -7.93893,-0.41512 -32.63571,-5.88634 -19.31566,8.72416 -16.90572,5.42245 -34.47359,6.89152 -51.68404,11.58484 -16.53321,7.1189 -35.39844,2.1126 -52.90303,3.50829 -17.26298,-1.28114 -33.58313,5.1427 -50.59991,5.01137 -21.47512,4.62848 -44.78542,0.93592 -67.04658,2.11886 -18.91923,3.50591 -38.4447,-2.62396 -57.145261,1.17274 -8.215018,1.30474 -19.69264,-0.82832 -26.697399,4.88818 z"
       id="path2999"
       style="fill:#963113;fill-opacity:1;stroke:#963113;stroke-width:1px;stroke-linecap:butt;stroke-linejoin:miter;stroke-opacity:1" />
    <path
       d="m 63.131555,500.86482 c 11.37163,37.23677 24.652219,159.3407 31.978081,171.39889 42.074644,-11.18637 50.658514,-12.43934 91.189264,-16.77599 35.08811,-5.01107 69.4627,-10.34451 88.96051,-10.42853 10.91248,-2.55329 4.19737,3.34916 9.42331,4.64933 6.74788,1.67883 10.99723,0.24157 21.02288,-0.65938 10.21137,-2.60719 13.9809,-0.94431 10.74629,-10.81217 30.33808,-7.00116 75.02993,-13.80711 112.61905,-17.70641 15.73716,-1.52265 40.09766,-3.19721 56.12096,-4.18951 23.58279,0.23795 -15.44665,-30.90517 -29.3581,-56.58613 -12.1603,-17.01937 -26.1974,-31.82493 -34.5356,-48.13027 -13.01851,-16.18028 -25.57183,-34.23741 -32.77025,-47.32807 -7.93904,-0.41019 -32.63617,-5.81633 -19.31593,8.62039 -16.90596,5.35795 -34.47407,6.80954 -51.68476,11.44704 -16.53344,7.03422 -35.39893,2.08747 -52.90376,3.46656 -17.26322,-1.2659 -33.5836,5.08153 -50.60062,4.95176 -21.47541,4.57343 -44.78604,0.92479 -67.04751,2.09366 -18.91949,3.46421 -38.44523,-2.59275 -57.146046,1.15879 -8.215132,1.28922 -19.692913,-0.81847 -26.697769,4.83004 z"
       id="path3005"
       style="fill:#cd4911;fill-opacity:1;stroke:#ce4b13;stroke-width:0.99404186px;stroke-linecap:butt;stroke-linejoin:miter;stroke-opacity:1" />
    <path
       d="m 74.719612,503.33665 c 10.824832,34.73089 20.941453,146.09229 27.915048,157.339 40.05152,-10.43357 50.24295,-11.09714 88.82481,-15.14194 33.40091,-4.67386 69.85245,-7.69604 88.41272,-7.77441 12.27134,-22.89463 -10.0751,-26.64304 15.34269,-29.51401 9.72036,-2.43173 26.5259,33.01536 20.80249,23.81156 28.87928,-6.53 71.26402,-13.47063 107.04568,-17.10751 14.98045,-1.42018 43.88388,-4.76776 59.13672,-5.69328 -10.05116,-12.63522 -22.20391,-27.03967 -35.44643,-50.9924 -11.57558,-15.87401 -23.15201,-29.68322 -31.08927,-44.89126 -12.39254,-15.09141 -24.34223,-31.93336 -31.19454,-44.14307 -7.55729,-0.38258 -31.06686,-5.42492 -18.38713,8.04027 -16.09304,4.99738 -32.8164,6.35129 -49.19952,10.6767 -15.73845,6.56084 -33.6968,1.94699 -50.35992,3.23326 -16.43313,-1.18071 -31.96876,4.73957 -48.16753,4.61853 -20.44278,4.26566 -42.63252,0.86255 -63.82356,1.95277 -18.00978,3.23107 -36.59663,-2.41826 -54.39824,1.08081 -7.820107,1.20246 -18.745986,-0.76339 -25.414018,4.50498 z"
       id="path3003"
       style="fill:#a63517;fill-opacity:1;stroke:#a63517;stroke-width:0.93664664px;stroke-linecap:butt;stroke-linejoin:miter;stroke-opacity:1" />
    <path
       d="m 278.57143,635.21932 c 0.0234,1.68611 1.49925,3.04721 1.92094,4.6799 0.67246,2.60365 -0.70386,5.88014 0.9338,8.01304 1.90003,2.4746 5.63007,2.90064 8.70169,3.44737 3.87101,0.68902 7.90383,0.29136 11.79191,-0.2937 2.73087,-0.41093 5.28949,-1.60147 7.97622,-2.24022 2.47475,-0.58835 5.83587,0.46914 7.48949,-1.46376 1.52202,-1.77908 0.59088,-4.70057 0.2639,-7.01892 -0.44023,-3.12126 -0.83519,-6.65005 -2.95508,-8.98289 -2.17868,-2.39754 -5.72396,-3.26601 -8.90006,-3.9042 -3.41137,-0.68546 -6.95948,0.0622 -10.4372,0.17543 -3.30306,0.10751 -6.76404,-0.55577 -9.90289,0.47834 -2.1341,0.70309 -4.20867,1.98232 -5.60778,3.7405 -0.74768,0.93957 -1.29159,2.16847 -1.27494,3.36911 z"
       id="path3009"
       style="fill:#601f0d;fill-opacity:1;stroke:#601f0d;stroke-width:1px;stroke-linecap:butt;stroke-linejoin:miter;stroke-opacity:1" />
    <path
       d="m 112.14286,648.07647 c 11.33715,2.29173 30.97632,-1.13852 46.36362,-2.8668 11.53256,-1.29532 22.87749,-3.92928 34.3597,-5.61357 15.85769,-2.32612 31.69703,-5.01611 47.68047,-6.20216 8.99948,-0.6678 19.79901,0.91077 27.06788,-0.50857 4.56515,-0.8914 5.58618,-8.74324 4.4024,-13.24145 -1.76271,-6.6981 -9.07638,-11.1375 -15.4119,-13.93624 -14.31964,-6.32576 -31.10862,-5.31345 -46.74406,-4.53863 -14.80844,0.73384 -29.84512,3.19447 -43.62973,8.65458 -11.37648,4.50625 -20.30772,13.74527 -31.13216,19.4516 -7.60407,4.00864 -19.21431,2.9486 -23.63179,10.32267 -1.45698,2.43213 -2.10337,7.91683 0.67557,8.47857 z"
       id="path3015"
       style="fill:#852a17;fill-opacity:1;stroke:#852a17;stroke-width:1px;stroke-linecap:butt;stroke-linejoin:miter;stroke-opacity:1" />
    <path
       d="m 312.85714,625.57647 c 9.07605,-1.57285 17.89132,-4.37788 27.00137,-5.79082 6.93684,-1.25508 13.85325,-2.65974 20.71423,-4.24528 8.46347,-1.28971 16.88749,-2.97096 25.44546,-3.51938 8.14947,-2.0954 16.72029,-1.35831 24.87775,-3.40789 -1.37136,-4.13584 -5.83861,-6.17456 -9.61624,-7.65034 -5.4257,-1.45859 -11.13139,-1.49219 -16.70137,-2.04211 -11.10954,-0.80442 -22.25505,-0.54175 -33.37952,-0.51707 -5.6677,0.12132 -11.27013,1.42288 -16.46238,3.61666 -6.8491,1.22772 -13.14098,4.93054 -17.55438,10.29871 -3.47061,3.51193 -3.42091,8.73236 -4.32492,13.25752 z"
       id="path3021"
       style="fill:#842a15;fill-opacity:1;stroke:#842a15;stroke-width:1px;stroke-linecap:butt;stroke-linejoin:miter;stroke-opacity:1" />
  </g>
  <g
     id="layer3">
    <path
       d="m 79.295202,500.21965 c 0.485117,11.99682 5.435116,25.96077 8.386039,45.85408 3.238242,20.78381 7.388621,41.49427 11.642346,62.20138 3.219753,14.71616 6.458633,36.17237 7.052483,41.14541 33.65049,-6.1522 63.58427,-17.298 98.6849,-20.77951 23.90495,-1.48796 61.58992,-2.3212 80.41384,10.69378 14.37154,-1.71119 12.15925,-1.02415 26.35192,-3.51485 7.79874,-28.47891 31.36803,-26.41753 68.67398,-26.87923 23.21969,2.58656 73.88109,-3.97667 91.96301,-9.35278 -7.6137,-12.18959 -27.17967,-36.58822 -45.40107,-64.95746 -11.61274,-18.38607 -33.01263,-47.6706 -44.94053,-65.43615 -22.11712,-8.33916 -21.57549,-3.73218 -41.65835,3.7348 -22.83846,3.41834 -30.01487,12.01816 -52.67131,20.1116 -16.60208,7.00327 -28.53802,19.93341 -49.75488,1.50492 -18.0869,-10.24679 -39.46789,-17.66669 -60.35321,-13.52573 -25.16426,-0.89707 -50.0778,1.33956 -74.61019,6.99066 -3.781045,0.21754 -14.482596,5.53165 -23.778978,12.20908 z"
       id="path3029"
       style="fill:#fdeec3;fill-opacity:1;stroke:#fdeec3;stroke-width:1px;stroke-linecap:butt;stroke-linejoin:miter;stroke-opacity:1" />
    <path
       d="m 106.5,648.95317 c 3.20359,-10.26355 5.93201,-15.06063 8.61124,-19.87623 17.48315,-4.67222 43.23714,-14.0442 65.34774,-19.1967 13.75582,-3.20556 27.65386,-6.31558 41.74667,-7.2594 15.0755,-1.00963 30.41351,-0.74767 45.29435,1.74134 12.22199,1.46013 20.22599,14.19374 28.25163,18.10861 8.00947,-11.17945 17.21823,-13.87669 28.62765,-19.82576 18.74801,-6.46032 33.01603,-6.42972 52.93836,-6.43153 16.80023,1.36712 40.53789,1.35717 58.23304,0.42708 10.87386,0.58624 12.51113,-3.29092 20.43752,-5.77577 11.56292,7.71082 6.83909,5.04177 16.01399,9.02779 -11.17883,3.59912 -36.71169,7.11684 -59.67504,8.57324 -19.22724,2.57195 -39.78226,-1.00809 -66.17461,1.3556 -14.85797,0.54632 -29.74616,7.84944 -34.53161,26.01195 -11.77479,1.88061 -15.88798,1.94676 -26.65298,3.38659 -15.74632,-11.23883 -47.11704,-11.99432 -63.2044,-10.89171 -34.62651,-1.15934 -67.10721,10.62734 -90.33942,15.5842 -10.34202,1.49848 -16.28689,5.15094 -24.92413,5.0407 z"
       id="path3035"
       style="fill:#deca8d;fill-opacity:1;stroke:#deca8d;stroke-width:1px;stroke-linecap:butt;stroke-linejoin:miter;stroke-opacity:1" />
    <path
       d="m 196.33723,467.97309 c -20.91678,-2.09117 -45.20068,5.73653 -64.52461,9.71403 -10.72413,4.31 -34.198005,-1.36979 -40.519727,-0.0876 14.576757,45.87392 24.365787,92.68119 22.707107,137.51256 11.32277,17.76017 44.2519,-3.32618 60.16464,-8.3251 20.74785,-11.12798 43.61192,-16.64831 67.10605,-17.39016 21.53026,0.47193 41.21091,19.66935 53.43859,31.95134 0.0288,-83.5434 116.52503,-22.47172 159.5454,-35.8379 -30.035,-37.40403 -63.90782,-88.40142 -89.21578,-124.70879 -21.51474,8.72267 -66.07673,1.73109 -89.55268,1.7921 -18.5147,0.85408 -35.13405,11.61932 -37.56671,25.13902 -12.68266,-12.2303 -24.34389,-17.70211 -41.58228,-19.7595 z"
       id="path3039"
       style="fill:#fff6dd;fill-opacity:1;stroke:#fff6dd;stroke-width:1px;stroke-linecap:butt;stroke-linejoin:miter;stroke-opacity:1;display:inline" />
    <path
       d="m 246,475.86218 c 1.74743,25.71598 19.56569,45.74642 25.77849,66.26701 5.41237,13.92892 9.2334,28.37842 15.39926,42.00697 3.76704,11.4218 4.11949,25.2228 7.72225,36.6698 -14.45497,-42.30333 -40.63442,-95.4875 -56.53909,-131.18253 -0.59408,-9.05249 4.24198,-12.4361 7.63909,-15.26125 z"
       id="path3047"
       style="fill:#fff2c5;fill-opacity:1;stroke:#fff2c5;stroke-width:1px;stroke-linecap:butt;stroke-linejoin:miter;stroke-opacity:1" />
    <path
       d="m 284.5,633.11218 c -0.0542,0.10769 -2.2488,-0.91162 -5.62781,-2.22641 -3.37901,-1.31479 -7.967,-2.86839 -12.68885,-4.09137 -4.72184,-1.22299 -9.56334,-2.12975 -13.28715,-2.69355 -3.7238,-0.5638 -6.32314,-0.82381 -6.59521,-0.85596 -0.0427,-0.005 -0.14327,-0.0176 -0.29727,-0.0367 -0.94412,-0.11689 -3.89386,-0.48335 -7.80584,-0.81462 -3.91198,-0.33126 -8.78809,-0.61104 -13.55811,-0.77192 -4.77001,-0.16088 -9.43134,-0.22038 -12.89822,-0.27691 -3.46688,-0.0565 -5.73927,-0.11678 -5.74154,-0.23261 -0.002,-0.11583 2.26535,-0.27684 5.73308,-0.42288 3.46773,-0.14604 8.13661,-0.27027 12.9275,-0.26494 4.79088,0.005 9.70219,0.15793 13.65149,0.39801 3.9493,0.24008 6.93668,0.55118 7.89232,0.65448 0.15598,0.0168 0.25787,0.0282 0.301,0.0333 0.2751,0.0323 2.89858,0.34223 6.65072,0.99996 3.75215,0.65772 8.62568,1.70336 13.35633,3.09415 4.73065,1.39079 9.30183,3.13952 12.62391,4.65641 3.32207,1.5169 5.41788,2.74384 5.36365,2.85153 z"
       id="path3052"
       style="fill:#c3af7c;fill-opacity:1;stroke:#c3af7c;stroke-width:1px;stroke-linecap:butt;stroke-linejoin:miter;stroke-opacity:1" />
    <path
       d="m 281.25001,624.36218 c -0.005,0.007 -0.97492,-0.68708 -2.51872,-1.7183 -1.54381,-1.03121 -3.66605,-2.3946 -6.09187,-3.45464 -3.12508,-0.88192 -6.42012,-1.90815 -8.99045,-2.67723 -2.57033,-0.76908 -4.41675,-1.27911 -4.59453,-1.32829 -0.18652,-0.0516 -2.23525,-0.64735 -5.0998,-1.29754 -1.76491,-0.40052 -3.85057,-0.80775 -5.99076,-1.09565 -2.14019,-0.28789 -4.33242,-0.44966 -6.29536,-0.46467 -1.96293,-0.015 -3.69522,0.11483 -4.93326,0.25843 -1.23803,0.1436 -1.9841,0.28438 -1.98526,0.27789 -0.001,-0.006 0.74283,-0.15986 1.98072,-0.31551 1.23789,-0.15565 2.97194,-0.29698 4.93816,-0.29241 1.96622,0.005 4.16317,0.15698 6.30814,0.43713 2.14498,0.28014 4.23542,0.68124 6.0041,1.07731 2.87162,0.64295 4.92469,1.23476 5.11147,1.28643 0.17803,0.0493 2.02589,0.56444 4.59549,1.34182 2.56961,0.77739 5.86131,1.81493 8.98088,2.71027 2.43124,1.07562 4.55058,2.4526 6.08793,3.49696 1.53734,1.04436 2.49793,1.75118 2.49312,1.758 z"
       id="path3054"
       style="fill:#c3af7c;fill-opacity:1;stroke:#c3af7c;stroke-width:1px;stroke-linecap:butt;stroke-linejoin:miter;stroke-opacity:1" />
    <path
       d="m 325,612.36212 c 0.002,0.0187 -0.15739,0.0565 -0.43272,0.10681 -0.42385,0.19109 -1.14425,0.5014 -1.97906,0.9093 -0.83481,0.40791 -1.78083,0.91732 -2.65888,1.47525 -0.87805,0.55793 -1.68494,1.16579 -2.30046,1.69519 -0.61553,0.52941 -1.04441,0.97494 -1.22002,1.1595 -0.0496,0.0415 -0.0809,0.0683 -0.0922,0.0778 -0.0529,0.0444 -0.56431,0.45538 -1.22287,1.15381 -0.65855,0.69843 -1.45241,1.6996 -2.25251,2.70308 -0.82963,1.04561 -1.72478,2.0712 -2.47851,2.74152 -0.75374,0.67033 -1.34131,1.00902 -1.36278,0.97784 -0.0215,-0.0312 0.52005,-0.42526 1.21653,-1.13187 0.69648,-0.7066 1.52783,-1.75265 2.3184,-2.82217 0.75524,-1.02697 1.52557,-2.05968 2.18058,-2.79175 0.65502,-0.73206 1.17917,-1.17535 1.23424,-1.22186 0.0118,-0.01 0.0448,-0.0375 0.0974,-0.0801 0.18666,-0.18654 0.64401,-0.63492 1.29385,-1.16021 0.64984,-0.52529 1.49635,-1.12153 2.41013,-1.6564 0.91378,-0.53486 1.89155,-1.0099 2.75159,-1.37481 0.86003,-0.36491 1.59929,-0.62403 2.03847,-0.7601 0.29196,-0.0181 0.45654,-0.0195 0.4588,-7.9e-4 z"
       id="path3056"
       style="fill:#c3af7c;fill-opacity:1;stroke:#c3af7c;stroke-width:1px;stroke-linecap:butt;stroke-linejoin:miter;stroke-opacity:1" />
    <path
       d="m 357.5,600.36146 c -0.002,0.0563 -0.33964,0.10176 -0.93615,0.13816 -0.26396,0.0179 -0.57871,0.0344 -0.93767,0.0495 -1.43794,0.0181 -3.57969,0.0487 -5.97967,0.22011 -2.39997,0.17145 -5.05673,0.4892 -7.53262,0.91764 -2.4759,0.42844 -4.76999,0.96179 -6.47474,1.40819 -1.70476,0.4464 -2.82356,0.79316 -2.96265,0.83289 -0.16724,0.0478 -1.79713,0.47257 -4.11317,1.22378 -2.31604,0.75121 -5.31056,1.85556 -8.22065,3.12352 -2.91009,1.26797 -5.73111,2.69394 -7.81923,3.80453 -2.08811,1.11059 -3.45777,1.88347 -3.52345,1.78236 -0.0657,-0.10112 1.18053,-1.06858 3.17634,-2.36899 1.99581,-1.30041 4.756,-2.91064 7.63836,-4.3412 2.88236,-1.43057 5.88198,-2.67481 8.21341,-3.52418 2.33142,-0.84937 3.98463,-1.33064 4.15553,-1.37937 0.14214,-0.0405 1.29581,-0.36151 3.05213,-0.75547 1.75632,-0.39397 4.11823,-0.84773 6.65886,-1.17059 2.54063,-0.32285 5.25836,-0.50904 7.70051,-0.52874 2.44215,-0.0197 4.60657,0.12135 6.04806,0.28732 0.35524,0.0304 0.66711,0.0602 0.92885,0.0893 0.59459,0.0703 0.92955,0.13487 0.92795,0.19116 z"
       id="path3058"
       style="fill:#c3af7c;fill-opacity:1;stroke:#c3af7c;stroke-width:1px;stroke-linecap:butt;stroke-linejoin:miter;stroke-opacity:1" />
    <path
       d="m 284.5,633.11218 c -0.0542,0.10769 -2.2488,-0.91162 -5.62781,-2.22641 -3.37901,-1.31479 -7.967,-2.86839 -12.68885,-4.09137 -4.72184,-1.22299 -9.56334,-2.12975 -13.28715,-2.69355 -3.7238,-0.5638 -6.32314,-0.82381 -6.59521,-0.85596 -0.0427,-0.005 -0.14327,-0.0176 -0.29727,-0.0367 -0.94412,-0.11689 -3.89386,-0.48335 -7.80584,-0.81462 -3.91198,-0.33126 -8.78809,-0.61104 -13.55811,-0.77192 -4.77001,-0.16088 -9.43134,-0.22038 -12.89822,-0.27691 -3.46688,-0.0565 -5.73927,-0.11678 -5.74154,-0.23261 -0.002,-0.11583 2.26535,-0.27684 5.73308,-0.42288 3.46773,-0.14604 8.13661,-0.27027 12.9275,-0.26494 4.79088,0.005 9.70219,0.15793 13.65149,0.39801 3.9493,0.24008 6.93668,0.55118 7.89232,0.65448 0.15598,0.0168 0.25787,0.0282 0.301,0.0333 0.2751,0.0323 2.89858,0.34223 6.65072,0.99996 3.75215,0.65772 8.62568,1.70336 13.35633,3.09415 4.73065,1.39079 9.30183,3.13952 12.62391,4.65641 3.32207,1.5169 5.41788,2.74384 5.36365,2.85153 z"
       id="path3140"
       style="fill:#000000;fill-opacity:0;stroke:#c3af7c;stroke-width:1px;stroke-linecap:butt;stroke-linejoin:miter;stroke-opacity:1" />
    <path
       d="m 281.25001,624.36218 c -0.005,0.007 -0.97492,-0.68708 -2.51872,-1.7183 -1.54381,-1.03121 -3.66605,-2.3946 -6.09187,-3.45464 -3.12508,-0.88192 -6.42012,-1.90815 -8.99045,-2.67723 -2.57033,-0.76908 -4.41675,-1.27911 -4.59453,-1.32829 -0.18652,-0.0516 -2.23525,-0.64735 -5.0998,-1.29754 -1.76491,-0.40052 -3.85057,-0.80775 -5.99076,-1.09565 -2.14019,-0.28789 -4.33242,-0.44966 -6.29536,-0.46467 -1.96293,-0.015 -3.69522,0.11483 -4.93326,0.25843 -1.23803,0.1436 -1.9841,0.28438 -1.98526,0.27789 -0.001,-0.006 0.74283,-0.15986 1.98072,-0.31551 1.23789,-0.15565 2.97194,-0.29698 4.93816,-0.29241 1.96622,0.005 4.16317,0.15698 6.30814,0.43713 2.14498,0.28014 4.23542,0.68124 6.0041,1.07731 2.87162,0.64295 4.92469,1.23476 5.11147,1.28643 0.17803,0.0493 2.02589,0.56444 4.59549,1.34182 2.56961,0.77739 5.86131,1.81493 8.98088,2.71027 2.43124,1.07562 4.55058,2.4526 6.08793,3.49696 1.53734,1.04436 2.49793,1.75118 2.49312,1.758 z"
       id="path3142"
       style="fill:#000000;fill-opacity:0;stroke:#c3af7c;stroke-width:1px;stroke-linecap:butt;stroke-linejoin:miter;stroke-opacity:1" />
    <path
       d="m 325,612.36212 c 0.002,0.0187 -0.15739,0.0565 -0.43272,0.10681 -0.42385,0.19109 -1.14425,0.5014 -1.97906,0.9093 -0.83481,0.40791 -1.78083,0.91732 -2.65888,1.47525 -0.87805,0.55793 -1.68494,1.16579 -2.30046,1.69519 -0.61553,0.52941 -1.04441,0.97494 -1.22002,1.1595 -0.0496,0.0415 -0.0809,0.0683 -0.0922,0.0778 -0.0529,0.0444 -0.56431,0.45538 -1.22287,1.15381 -0.65855,0.69843 -1.45241,1.6996 -2.25251,2.70308 -0.82963,1.04561 -1.72478,2.0712 -2.47851,2.74152 -0.75374,0.67033 -1.34131,1.00902 -1.36278,0.97784 -0.0215,-0.0312 0.52005,-0.42526 1.21653,-1.13187 0.69648,-0.7066 1.52783,-1.75265 2.3184,-2.82217 0.75524,-1.02697 1.52557,-2.05968 2.18058,-2.79175 0.65502,-0.73206 1.17917,-1.17535 1.23424,-1.22186 0.0118,-0.01 0.0448,-0.0375 0.0974,-0.0801 0.18666,-0.18654 0.64401,-0.63492 1.29385,-1.16021 0.64984,-0.52529 1.49635,-1.12153 2.41013,-1.6564 0.91378,-0.53486 1.89155,-1.0099 2.75159,-1.37481 0.86003,-0.36491 1.59929,-0.62403 2.03847,-0.7601 0.29196,-0.0181 0.45654,-0.0195 0.4588,-7.9e-4 z"
       id="path3144"
       style="fill:#000000;fill-opacity:0;stroke:#c3af7c;stroke-width:1px;stroke-linecap:butt;stroke-linejoin:miter;stroke-opacity:1" />
    <path
       d="m 357.5,600.36146 c -0.002,0.0563 -0.33964,0.10176 -0.93615,0.13816 -0.26396,0.0179 -0.57871,0.0344 -0.93767,0.0495 -1.43794,0.0181 -3.57969,0.0487 -5.97967,0.22011 -2.39997,0.17145 -5.05673,0.4892 -7.53262,0.91764 -2.4759,0.42844 -4.76999,0.96179 -6.47474,1.40819 -1.70476,0.4464 -2.82356,0.79316 -2.96265,0.83289 -0.16724,0.0478 -1.79713,0.47257 -4.11317,1.22378 -2.31604,0.75121 -5.31056,1.85556 -8.22065,3.12352 -2.91009,1.26797 -5.73111,2.69394 -7.81923,3.80453 -2.08811,1.11059 -3.45777,1.88347 -3.52345,1.78236 -0.0657,-0.10112 1.18053,-1.06858 3.17634,-2.36899 1.99581,-1.30041 4.756,-2.91064 7.63836,-4.3412 2.88236,-1.43057 5.88198,-2.67481 8.21341,-3.52418 2.33142,-0.84937 3.98463,-1.33064 4.15553,-1.37937 0.14214,-0.0405 1.29581,-0.36151 3.05213,-0.75547 1.75632,-0.39397 4.11823,-0.84773 6.65886,-1.17059 2.54063,-0.32285 5.25836,-0.50904 7.70051,-0.52874 2.44215,-0.0197 4.60657,0.12135 6.04806,0.28732 0.35524,0.0304 0.66711,0.0602 0.92885,0.0893 0.59459,0.0703 0.92955,0.13487 0.92795,0.19116 z"
       id="path3146"
       style="fill:#000000;fill-opacity:0;stroke:#c3af7c;stroke-width:1px;stroke-linecap:butt;stroke-linejoin:miter;stroke-opacity:1" />
    <path
       d="m 286.59838,621.68211 c -0.0112,0.0129 -1.07633,-0.91652 -2.76424,-2.30017 -1.68792,-1.38365 -4.00634,-3.21328 -6.70545,-4.65968 -3.3867,-1.17137 -6.89576,-2.51183 -9.6238,-3.51596 -2.72803,-1.00414 -4.67597,-1.67106 -4.86732,-1.73682 -0.21362,-0.0734 -2.64079,-0.95432 -6.01252,-1.89917 -1.96425,-0.55019 -4.26838,-1.10124 -6.62553,-1.48928 -2.35716,-0.38804 -4.76333,-0.60421 -6.90965,-0.6253 -2.14631,-0.0211 -4.03081,0.15012 -5.37362,0.33802 -1.34281,0.1879 -2.14764,0.37069 -2.15043,0.35802 -0.003,-0.0127 0.79703,-0.22006 2.13946,-0.4317 1.34244,-0.21163 3.23111,-0.40569 5.3853,-0.40532 2.15418,3.6e-4 4.57169,0.19801 6.94039,0.57099 2.3687,0.37297 4.68441,0.91246 6.65787,1.4546 3.38941,0.93072 5.82748,1.80404 6.0417,1.87768 0.19189,0.066 2.14272,0.74315 4.8688,1.76325 2.72609,1.0201 6.2274,2.38189 9.60135,3.57819 2.71,1.48024 5.02104,3.33738 6.69355,4.74662 1.6725,1.40925 2.71538,2.36309 2.70414,2.37603 z"
       id="path3148"
       style="fill:#000000;fill-opacity:0;stroke:#c3af7c;stroke-width:1.21741498px;stroke-linecap:butt;stroke-linejoin:miter;stroke-opacity:1" />
  </g>
</svg>
